<svg xmlns="http://www.w3.org/2000/svg" width="20" height="20" viewBox="0 0 20 20">
  <path d="M4.25 2.75h4a1.5 1.5 0 0 1 1.5 1.5v1.25h-7V4.25a1.5 1.5 0 0 1 1.5-1.5z" fill="#2563EB" fill-opacity="0.16"/>
  <path d="M4.25 2.75h4a1.5 1.5 0 0 1 1.5 1.5v4a1.5 1.5 0 0 1-1.5 1.5h-4a1.5 1.5 0 0 1-1.5-1.5v-4a1.5 1.5 0 0 1 1.5-1.5zM2.75 5.5h7" stroke="#475467" stroke-width="1.5" stroke-linecap="round" stroke-linejoin="round" fill="none"/>
  <path d="M11.75 10.25h4a1.5 1.5 0 0 1 1.5 1.5V13h-7v-1.25a1.5 1.5 0 0 1 1.5-1.5z" fill="#2563EB" fill-opacity="0.16"/>
  <path d="M11.75 10.25h4a1.5 1.5 0 0 1 1.5 1.5v4a1.5 1.5 0 0 1-1.5 1.5h-4a1.5 1.5 0 0 1-1.5-1.5v-4a1.5 1.5 0 0 1 1.5-1.5zM10.25 13h7" stroke="#475467" stroke-width="1.5" stroke-linecap="round" stroke-linejoin="round" fill="none"/>
  <path d="M9.75 6.25h4a.75.75 0 0 1 .75.75v3.25M12.75 8.5l1.75 1.75l1.75-1.75" stroke="#2563EB" stroke-width="1.5" stroke-linecap="round" stroke-linejoin="round" fill="none"/>
</svg>
