<svg xmlns="http://www.w3.org/2000/svg" width="16" height="16" viewBox="0 0 16 16">
  <path d="M6 2.25h4a1.25 1.25 0 0 1 1.25 1.25v2.25h-6.5V3.5A1.25 1.25 0 0 1 6 2.25z" fill="#2563EB" fill-opacity="0.16"/>
  <path d="M6 2.25h4a1.25 1.25 0 0 1 1.25 1.25v9a1.25 1.25 0 0 1-1.25 1.25H6a1.25 1.25 0 0 1-1.25-1.25v-9A1.25 1.25 0 0 1 6 2.25z" stroke="#475467" stroke-width="1.5" stroke-linecap="round" stroke-linejoin="round" fill="none"/>
  <path d="M4.75 5.75h6.5" stroke="#2563EB" stroke-width="1.5" stroke-linecap="round" stroke-linejoin="round" fill="none"/>
  <path d="M4.75 9.75h6.5" stroke="#475467" stroke-width="1.5" stroke-linecap="round" stroke-linejoin="round" fill="none"/>
</svg>
