<svg xmlns="http://www.w3.org/2000/svg" width="16" height="16" viewBox="0 0 16 16">
  <path d="M3.75 2.75h8.5a1.5 1.5 0 0 1 1.5 1.5v1.75H2.25V4.25a1.5 1.5 0 0 1 1.5-1.5z" fill="#2563EB" fill-opacity="0.16"/>
  <path d="M3.75 2.75h8.5a1.5 1.5 0 0 1 1.5 1.5v7.5a1.5 1.5 0 0 1-1.5 1.5h-8.5a1.5 1.5 0 0 1-1.5-1.5v-7.5a1.5 1.5 0 0 1 1.5-1.5z" stroke="#475467" stroke-width="1.5" stroke-linecap="round" stroke-linejoin="round" fill="none"/>
  <path d="M2.25 6h11.5" stroke="#2563EB" stroke-width="1.5" stroke-linecap="round" stroke-linejoin="round" fill="none"/>
  <path d="M6.5 6v7.25M2.25 9.5h11.5" stroke="#475467" stroke-width="1.5" stroke-linecap="round" stroke-linejoin="round" fill="none"/>
</svg>
